<svg width="101" height="100" viewBox="0 0 101 100" fill="none" xmlns="http://www.w3.org/2000/svg">
<rect x="0.5" width="100" height="100" rx="50" fill="white"/>
<path fill-rule="evenodd" clip-rule="evenodd" d="M71 27V73H31.8V62.4771H30.4C29.6272 62.4771 29 61.871 29 61.1242C29 60.3774 29.6272 59.7713 30.4 59.7713H31.8V51.6536H30.4C29.6272 51.6536 29 51.0475 29 50.3007C29 49.5538 29.6272 48.9477 30.4 48.9477H31.8V40.83H30.4C29.6272 40.83 29 40.2239 29 39.4771C29 38.7303 29.6272 38.1242 30.4 38.1242H31.8V27H71ZM58.0759 60.295H42.2355V63.0009H58.0759V60.295ZM60.7804 55.1481H42.2355V57.8539H60.7804V55.1481ZM58.0759 42.3341H42.2355V45.0399H58.0759V42.3341ZM60.7804 37.1871H42.2355V39.893H60.7804V37.1871Z" fill="#04857A"/>
</svg>
