<svg width="162" height="80" viewBox="0 0 162 80" fill="none" xmlns="http://www.w3.org/2000/svg">
<path d="M12.3612 53.2675V24.5254H34.9509V29.184H18.3673V36.3969H33.6987V41.0554H18.3673V48.6211H35.7777V53.2675H12.3612Z" fill="white"/>
<path d="M54.6066 53.2679C54.5489 53.0672 54.4851 52.5563 54.4121 51.7353C54.3392 50.9082 54.3026 50.224 54.3026 49.6796H54.2175C52.9836 52.3495 50.6339 53.6814 47.1659 53.6814C44.5944 53.6814 42.6096 52.681 41.2084 50.6771C39.8133 48.6671 39.1172 45.8604 39.1172 42.26C39.1172 38.6049 39.8528 35.7769 41.33 33.7821C42.8041 31.7873 44.8923 30.79 47.5914 30.79C49.1537 30.79 50.5033 31.1183 51.64 31.7751C52.7738 32.4259 53.6491 33.3929 54.2662 34.6822H54.3026L54.2662 31.0575V23.0054H59.9926V48.4512C59.9926 49.8135 60.0443 51.4191 60.1507 53.2679H54.6066ZM54.3392 42.1141C54.3392 39.73 53.9409 37.8994 53.1476 36.6162C52.3513 35.3268 51.1811 34.6822 49.6339 34.6822C48.1021 34.6822 46.9592 35.3086 46.2054 36.5554C45.4576 37.7961 45.0868 39.6996 45.0868 42.26C45.0868 47.2652 46.5884 49.7649 49.5975 49.7649C51.1051 49.7649 52.2723 49.105 53.099 47.7822C53.9258 46.4533 54.3392 44.5649 54.3392 42.1141Z" fill="white"/>
<path d="M71.2136 31.2031V43.5854C71.2136 47.4534 72.5175 49.3874 75.1285 49.3874C76.5145 49.3874 77.6331 48.7975 78.4841 47.6115C79.3352 46.4195 79.7607 44.893 79.7607 43.026V31.2031H85.4871V48.3292C85.4871 50.2114 85.5389 51.8565 85.6452 53.2675H80.1862C80.0221 51.3153 79.9431 49.8496 79.9431 48.8765H79.8337C79.0708 50.5551 78.1011 51.7775 76.9279 52.5377C75.7516 53.298 74.3564 53.6811 72.7455 53.6811C70.402 53.6811 68.6056 52.9634 67.3595 51.5282C66.1102 50.0928 65.4872 47.9886 65.4872 45.2154V31.2031H71.2136Z" fill="white"/>
<path d="M89.8509 53.268V49.2906C90.5954 47.6455 91.6563 46.0399 93.0364 44.4739C94.4225 42.9109 96.1611 41.2809 98.2522 39.5841C100.262 37.9543 101.672 36.6102 102.483 35.5459C103.292 34.4846 103.699 33.4416 103.699 32.4199C103.699 29.9233 102.438 28.6735 99.9178 28.6735C98.693 28.6735 97.7573 29.002 97.1097 29.6588C96.4681 30.3157 96.0547 31.3069 95.8694 32.6267L90.0944 32.2983C90.4161 29.6406 91.4102 27.6093 93.0733 26.2044C94.7415 24.8025 97.0119 24.1001 99.8818 24.1001C102.976 24.1001 105.352 24.8117 107.006 26.2288C108.666 27.6397 109.499 29.6223 109.499 32.1766C109.499 33.5237 109.234 34.7431 108.709 35.8378C108.179 36.9265 107.498 37.9269 106.665 38.8421C105.839 39.7606 104.918 40.618 103.906 41.4208C102.891 42.2236 101.912 43.0082 100.963 43.7683C100.016 44.5316 99.1459 45.301 98.3619 46.0794C97.584 46.8518 97.0033 47.6789 96.6234 48.5608H109.948V53.268H89.8509Z" fill="#FF914D"/>
<path d="M134.72 53.2675L132.166 45.9208H121.223L118.671 53.2675H112.664L123.133 24.5254H130.233L140.664 53.2675H134.72ZM126.683 28.9529L126.561 29.4029C126.421 29.8986 126.257 30.458 126.063 31.0814C125.874 31.7078 124.707 35.1441 122.561 41.396H130.829L127.984 33.1371L127.108 30.3638L126.683 28.9529Z" fill="white"/>
<path d="M144.678 53.2679V23.0054H150.404V53.2679H144.678Z" fill="white"/>
<path d="M156.274 53.2679V23.0054H162V53.2679H156.274Z" fill="white"/>
<mask id="mask0_9_1827" style="mask-type:luminance" maskUnits="userSpaceOnUse" x="3" y="22" width="7" height="10">
<path d="M3.79028 22.563H9.21582V31.865H3.79028V22.563Z" fill="white"/>
</mask>
<g mask="url(#mask0_9_1827)">
<mask id="mask1_9_1827" style="mask-type:luminance" maskUnits="userSpaceOnUse" x="-1" y="-1" width="51" height="33">
<path d="M-0.249268 1.13418L48.8147 -0.118652L49.5989 30.5787L0.534929 31.8224L-0.249268 1.13418Z" fill="white"/>
</mask>
<g mask="url(#mask1_9_1827)">
<mask id="mask2_9_1827" style="mask-type:luminance" maskUnits="userSpaceOnUse" x="-1" y="-1" width="51" height="33">
<path d="M-0.249268 1.13418L48.8147 -0.118652L49.5989 30.5787L0.534929 31.8224L-0.249268 1.13418Z" fill="white"/>
</mask>
<g mask="url(#mask2_9_1827)">
<path fill-rule="evenodd" clip-rule="evenodd" d="M5.78723 22.8945C4.4772 24.7464 4.09118 27.2399 4.3921 30.226C6.35562 31.8012 7.80548 31.7038 8.86933 30.3324C8.73861 24.5639 7.81459 21.7178 5.78723 22.8945Z" fill="#F28F53"/>
</g>
</g>
</g>
<mask id="mask3_9_1827" style="mask-type:luminance" maskUnits="userSpaceOnUse" x="4" y="24" width="2" height="8">
<path d="M4.73563 24.8984H5.67788V31.1261H4.73563V24.8984Z" fill="white"/>
</mask>
<g mask="url(#mask3_9_1827)">
<mask id="mask4_9_1827" style="mask-type:luminance" maskUnits="userSpaceOnUse" x="-1" y="-1" width="51" height="33">
<path d="M-0.249207 1.13418L48.8148 -0.118652L49.599 30.5787L0.53499 31.8224L-0.249207 1.13418Z" fill="white"/>
</mask>
<g mask="url(#mask4_9_1827)">
<mask id="mask5_9_1827" style="mask-type:luminance" maskUnits="userSpaceOnUse" x="-1" y="-1" width="51" height="33">
<path d="M-0.249207 1.13418L48.8148 -0.118652L49.599 30.5787L0.53499 31.8224L-0.249207 1.13418Z" fill="white"/>
</mask>
<g mask="url(#mask5_9_1827)">
<path fill-rule="evenodd" clip-rule="evenodd" d="M5.66873 31.0624L5.35567 25.1753L4.92709 30.6428C5.19457 30.8039 5.43165 30.9438 5.66873 31.0624Z" fill="#FABB5B"/>
</g>
</g>
</g>
<mask id="mask6_9_1827" style="mask-type:luminance" maskUnits="userSpaceOnUse" x="6" y="26" width="2" height="6">
<path d="M6.10336 26.4556H7.56841V31.8652H6.10336V26.4556Z" fill="white"/>
</mask>
<g mask="url(#mask6_9_1827)">
<mask id="mask7_9_1827" style="mask-type:luminance" maskUnits="userSpaceOnUse" x="-1" y="-1" width="51" height="33">
<path d="M-0.249237 1.13418L48.8148 -0.118652L49.599 30.5787L0.53496 31.8224L-0.249237 1.13418Z" fill="white"/>
</mask>
<g mask="url(#mask7_9_1827)">
<mask id="mask8_9_1827" style="mask-type:luminance" maskUnits="userSpaceOnUse" x="-1" y="-1" width="51" height="33">
<path d="M-0.249237 1.13418L48.8148 -0.118652L49.599 30.5787L0.53496 31.8224L-0.249237 1.13418Z" fill="white"/>
</mask>
<g mask="url(#mask8_9_1827)">
<path fill-rule="evenodd" clip-rule="evenodd" d="M6.60183 27.787L6.67781 30.2897L6.22797 27.0269L6.55015 31.1898C6.78419 31.2536 7.02128 31.2871 7.23708 31.2962H7.25836L6.60183 27.787Z" fill="#FABB5B"/>
</g>
</g>
</g>
<mask id="mask9_9_1827" style="mask-type:luminance" maskUnits="userSpaceOnUse" x="6" y="25" width="3" height="7">
<path d="M6.8815 25.4731H8.43774V31.865H6.8815V25.4731Z" fill="white"/>
</mask>
<g mask="url(#mask9_9_1827)">
<mask id="mask10_9_1827" style="mask-type:luminance" maskUnits="userSpaceOnUse" x="-1" y="-1" width="51" height="33">
<path d="M-0.249207 1.13418L48.8147 -0.118652L49.5989 30.5787L0.53499 31.8224L-0.249207 1.13418Z" fill="white"/>
</mask>
<g mask="url(#mask10_9_1827)">
<mask id="mask11_9_1827" style="mask-type:luminance" maskUnits="userSpaceOnUse" x="-1" y="-1" width="51" height="33">
<path d="M-0.249207 1.13418L48.8147 -0.118652L49.5989 30.5787L0.53499 31.8224L-0.249207 1.13418Z" fill="white"/>
</mask>
<g mask="url(#mask11_9_1827)">
<path fill-rule="evenodd" clip-rule="evenodd" d="M7.50461 25.6128L7.70826 31.2657C7.84807 31.211 7.98789 31.135 8.1277 31.0498L8.19153 28.3222L7.81464 28.1489L7.50461 25.6128Z" fill="#FABB5B"/>
</g>
</g>
</g>
<mask id="mask12_9_1827" style="mask-type:luminance" maskUnits="userSpaceOnUse" x="12" y="11" width="25" height="13">
<path d="M12.3283 11.3242H36.9059V23.591H12.3283V11.3242Z" fill="white"/>
</mask>
<g mask="url(#mask12_9_1827)">
<mask id="mask13_9_1827" style="mask-type:luminance" maskUnits="userSpaceOnUse" x="-1" y="-1" width="51" height="33">
<path d="M-0.249268 1.13418L48.8147 -0.118652L49.5989 30.5787L0.534929 31.8224L-0.249268 1.13418Z" fill="white"/>
</mask>
<g mask="url(#mask13_9_1827)">
<mask id="mask14_9_1827" style="mask-type:luminance" maskUnits="userSpaceOnUse" x="-1" y="-1" width="51" height="33">
<path d="M-0.249268 1.13418L48.8147 -0.118652L49.5989 30.5787L0.534929 31.8224L-0.249268 1.13418Z" fill="white"/>
</mask>
<g mask="url(#mask14_9_1827)">
<path d="M19.3375 19.9206C22.7843 19.4796 26.8876 19.6407 30.3344 20.3584C32.3405 20.775 35.5624 21.6842 36.5928 23.3962C36.5837 23.3019 36.5624 23.2046 36.5199 23.1073C36.5411 21.7937 36.5715 20.3675 36.6049 18.914C36.6262 17.7585 36.6475 16.5786 36.6809 15.414C36.4651 14.1915 34.1672 12.9935 30.687 12.2667C27.2614 11.549 23.1702 11.3666 19.7569 11.7862C15.9757 12.2333 13.4012 13.3462 12.4772 14.9092C12.4559 15.0491 12.4012 15.4019 12.4012 15.7454C12.4134 16.5908 12.4225 17.6186 12.4347 18.6677C12.4225 18.6677 12.4225 18.6677 12.4134 18.6556C12.4225 20.3463 12.4225 21.6629 12.4134 22.5083C13.4863 21.4592 15.5137 20.4101 19.3375 19.9206Z" fill="white"/>
</g>
</g>
</g>
<mask id="mask15_9_1827" style="mask-type:luminance" maskUnits="userSpaceOnUse" x="0" y="0" width="49" height="18">
<path d="M0 0H48.8998V17.8924H0V0Z" fill="white"/>
</mask>
<g mask="url(#mask15_9_1827)">
<mask id="mask16_9_1827" style="mask-type:luminance" maskUnits="userSpaceOnUse" x="-1" y="-1" width="51" height="33">
<path d="M-0.249237 1.13418L48.8148 -0.118652L49.599 30.5787L0.53496 31.8224L-0.249237 1.13418Z" fill="white"/>
</mask>
<g mask="url(#mask16_9_1827)">
<mask id="mask17_9_1827" style="mask-type:luminance" maskUnits="userSpaceOnUse" x="-1" y="-1" width="51" height="33">
<path d="M-0.249237 1.13418L48.8148 -0.118652L49.599 30.5787L0.53496 31.8224L-0.249237 1.13418Z" fill="white"/>
</mask>
<g mask="url(#mask17_9_1827)">
<path d="M48.599 11.0685L23.9545 0.556276C23.8572 0.513703 23.7509 0.525867 23.6536 0.568439L0.25535 11.9564C0.115533 12.0203 0.030426 12.1693 0.030426 12.3305C0.030426 12.4916 0.12769 12.6315 0.267508 12.6953L11.5958 17.8435C11.5958 17.1472 11.5837 16.3991 11.5745 15.5963C11.5624 15.049 11.6718 14.526 11.6718 14.5047L11.6809 14.4287L11.7143 14.3648C12.4347 13.0694 14.3983 11.3999 19.6293 10.7674C23.1277 10.3508 27.3162 10.5333 30.8055 11.2601C33.146 11.7527 37.1187 12.9082 37.4409 15.1554L37.453 15.1888V15.2193C37.4317 16.1103 37.4195 16.9981 37.3983 17.8861L48.6203 11.8075C48.7509 11.7314 48.836 11.5916 48.8239 11.4303C48.836 11.2723 48.7388 11.1324 48.599 11.0685Z" fill="white"/>
</g>
</g>
</g>
<mask id="mask18_9_1827" style="mask-type:luminance" maskUnits="userSpaceOnUse" x="5" y="13" width="2" height="10">
<path d="M5.67789 13.2217H6.88153V22.5632H5.67789V13.2217Z" fill="white"/>
</mask>
<g mask="url(#mask18_9_1827)">
<mask id="mask19_9_1827" style="mask-type:luminance" maskUnits="userSpaceOnUse" x="-1" y="-1" width="51" height="33">
<path d="M-0.249176 1.13418L48.8148 -0.118652L49.599 30.5787L0.535021 31.8224L-0.249176 1.13418Z" fill="white"/>
</mask>
<g mask="url(#mask19_9_1827)">
<mask id="mask20_9_1827" style="mask-type:luminance" maskUnits="userSpaceOnUse" x="-1" y="-1" width="51" height="33">
<path d="M-0.249176 1.13418L48.8148 -0.118652L49.599 30.5787L0.535021 31.8224L-0.249176 1.13418Z" fill="white"/>
</mask>
<g mask="url(#mask20_9_1827)">
<path d="M6.69002 21.8455L5.93622 21.8576L5.88455 13.4345L6.63531 13.4224L6.69002 21.8455Z" fill="white"/>
</g>
</g>
</g>
<mask id="mask21_9_1827" style="mask-type:luminance" maskUnits="userSpaceOnUse" x="4" y="20" width="5" height="4">
<path d="M4.73563 20.2275H8.43776V23.3414H4.73563V20.2275Z" fill="white"/>
</mask>
<g mask="url(#mask21_9_1827)">
<mask id="mask22_9_1827" style="mask-type:luminance" maskUnits="userSpaceOnUse" x="-1" y="-1" width="51" height="33">
<path d="M-0.249207 1.13418L48.8148 -0.118652L49.599 30.5787L0.53499 31.8224L-0.249207 1.13418Z" fill="white"/>
</mask>
<g mask="url(#mask22_9_1827)">
<mask id="mask23_9_1827" style="mask-type:luminance" maskUnits="userSpaceOnUse" x="-1" y="-1" width="51" height="33">
<path d="M-0.249207 1.13418L48.8148 -0.118652L49.599 30.5787L0.53499 31.8224L-0.249207 1.13418Z" fill="white"/>
</mask>
<g mask="url(#mask23_9_1827)">
<path fill-rule="evenodd" clip-rule="evenodd" d="M6.55931 20.6261C7.34351 20.6473 7.95445 21.2586 7.93317 21.9945C7.92406 22.7334 7.26752 23.3112 6.48332 23.302C5.70217 23.2807 5.08818 22.6695 5.10034 21.9306C5.12162 21.1825 5.77512 20.6048 6.55931 20.6261Z" fill="#FABB5B"/>
</g>
</g>
</g>
<path d="M12.3891 22.5086L23.9454 11.5615L36.5199 23.1076" stroke="#0E4946" stroke-width="0.183661" stroke-miterlimit="10"/>
<mask id="mask24_9_1827" style="mask-type:luminance" maskUnits="userSpaceOnUse" x="12" y="61" width="150" height="19">
<path d="M12.6475 61.8022H161.937V79.1808H12.6475V61.8022Z" fill="white"/>
</mask>
<g mask="url(#mask24_9_1827)">
<mask id="mask25_9_1827" style="mask-type:luminance" maskUnits="userSpaceOnUse" x="12" y="61" width="150" height="19">
<path d="M21.3344 61.8022H153.222C155.526 61.8022 157.736 62.7176 159.365 64.3475C160.995 65.9774 161.909 68.1881 161.909 70.4931C161.909 72.798 160.995 75.0057 159.365 76.6356C157.736 78.2655 155.526 79.1808 153.222 79.1808H21.3344C19.0305 79.1808 16.8208 78.2655 15.1915 76.6356C13.5624 75.0057 12.6475 72.798 12.6475 70.4931C12.6475 68.1881 13.5624 65.9774 15.1915 64.3475C16.8208 62.7176 19.0305 61.8022 21.3344 61.8022Z" fill="white"/>
</mask>
<g mask="url(#mask25_9_1827)">
<path d="M12.6475 61.8022H161.937V79.1808H12.6475V61.8022Z" fill="#F28F53"/>
</g>
</g>
<path d="M48.7883 64.6646C49.0557 64.6646 49.3536 64.6737 49.6879 64.6889C50.0284 64.698 50.3475 64.7193 50.6484 64.7498C50.9463 64.774 51.1773 64.7984 51.3414 64.8227C51.4387 64.8318 51.4995 64.8531 51.5238 64.8835C51.5481 64.917 51.5511 64.9748 51.536 65.0538L51.4387 65.6498C51.4296 65.7319 51.4052 65.7928 51.3658 65.8322C51.3323 65.8657 51.2563 65.8779 51.1347 65.8688C50.8338 65.8535 50.466 65.8383 50.0283 65.8201C49.5967 65.7958 49.1833 65.7836 48.7883 65.7836C48.4144 65.7836 48.0527 65.817 47.7062 65.8809C47.3567 65.9478 47.0679 66.0816 46.843 66.2823C46.615 66.486 46.5025 66.7871 46.5025 67.1824C46.5025 67.5169 46.5937 67.7906 46.7822 68.0096C46.9676 68.2224 47.2837 68.4778 47.7304 68.7758L48.849 69.5299C49.4873 69.9526 49.9342 70.3631 50.1864 70.7584C50.4448 71.1568 50.5755 71.6068 50.5755 72.1086C50.5755 72.7502 50.4083 73.2884 50.077 73.7263C49.7426 74.1642 49.2898 74.4926 48.7153 74.7116C48.1378 74.9305 47.4873 75.04 46.7578 75.04C46.384 75.04 45.9736 75.0187 45.5299 74.9791C45.083 74.9397 44.7152 74.894 44.4235 74.8453C44.2594 74.8211 44.1864 74.7419 44.2046 74.6021L44.3019 74.0547C44.3171 73.9513 44.3415 73.8814 44.3748 73.848C44.4144 73.8175 44.4964 73.8114 44.618 73.8358C44.8278 73.854 45.0678 73.8693 45.3354 73.8845C45.6028 73.8936 45.8703 73.9026 46.1378 73.9087C46.4113 73.9087 46.6545 73.9087 46.8672 73.9087C47.6028 73.9087 48.1864 73.772 48.618 73.4952C49.0466 73.2215 49.2624 72.7593 49.2624 72.1086C49.2624 71.7772 49.1651 71.5004 48.9706 71.2814C48.7761 71.0625 48.4357 70.7888 47.9493 70.4543L46.7578 69.6516C46.2867 69.3353 45.919 68.9826 45.6514 68.5934C45.39 68.1981 45.2624 67.751 45.2624 67.2554C45.2624 66.6168 45.4235 66.109 45.7487 65.7349C46.08 65.3549 46.5146 65.0842 47.0496 64.92C47.5846 64.7498 48.1621 64.6646 48.7883 64.6646Z" fill="white"/>
<path d="M57.9504 68.3624C57.4064 68.3624 56.9443 68.5661 56.5645 68.9705C56.1906 69.378 55.9474 69.9315 55.835 70.6369L55.6525 71.7073C55.5948 72.0175 55.5675 72.2912 55.5675 72.5344C55.5675 73.0544 55.683 73.4285 55.9201 73.6535C56.1632 73.8724 56.5066 73.9818 56.9535 73.9818C57.2939 73.9818 57.5887 73.9788 57.841 73.9697C58.0994 73.9545 58.379 73.9271 58.6799 73.8845C58.8745 73.8542 58.9534 73.9211 58.9231 74.0913L58.838 74.5901C58.8136 74.7542 58.7043 74.8515 58.5098 74.882C58.2818 74.9245 58.0143 74.958 57.7073 74.9915C57.4064 75.0218 57.0933 75.0401 56.7711 75.0401C56.2422 75.0401 55.8015 74.9306 55.4459 74.7116C55.0872 74.4867 54.8197 74.1765 54.6434 73.7872C54.4641 73.3919 54.376 72.948 54.376 72.4615C54.376 72.3337 54.379 72.206 54.3881 72.0844C54.4034 71.9628 54.4246 71.8381 54.4489 71.7073L54.6192 70.6369C54.8045 69.527 55.2028 68.6969 55.8106 68.1434C56.4186 67.5839 57.1906 67.3042 58.1328 67.3042C58.4489 67.3042 58.7529 67.3224 59.0447 67.3529C59.3365 67.3771 59.5918 67.4136 59.8106 67.4623C59.9383 67.4805 60.0113 67.5109 60.0294 67.5596C60.0538 67.6021 60.0538 67.6661 60.0294 67.7542L59.9565 68.2529C59.9475 68.3259 59.9201 68.3837 59.8715 68.4232C59.8288 68.4658 59.7498 68.4779 59.6283 68.4597C59.3365 68.4201 59.069 68.3959 58.8258 68.3867C58.5827 68.3715 58.2909 68.3624 57.9504 68.3624Z" fill="white"/>
<path d="M69.4293 69.5055C69.4293 69.5967 69.4202 69.6849 69.4049 69.773C69.3958 69.8642 69.3837 69.9616 69.3685 70.065L68.5661 74.6628C68.5478 74.7357 68.5175 74.8026 68.4688 74.8574C68.4262 74.9151 68.3503 74.9425 68.2378 74.9425H67.5691C67.3989 74.9425 67.3259 74.8513 67.3503 74.6628L68.1649 70.065C68.18 69.9616 68.1922 69.8642 68.2013 69.773C68.2074 69.6849 68.2135 69.5997 68.2135 69.5177C68.2135 69.098 68.0919 68.797 67.8487 68.6175C67.6116 68.432 67.2226 68.3378 66.6815 68.3378C66.405 68.3378 66.1223 68.3591 65.8305 68.3986C65.5387 68.432 65.2834 68.4807 65.0646 68.5446L63.9946 74.6628C63.9855 74.7357 63.9612 74.8026 63.9217 74.8574C63.8791 74.9151 63.794 74.9425 63.6663 74.9425H63.0098C62.9035 74.9425 62.8396 74.9151 62.8153 74.8574C62.7909 74.7935 62.7818 74.7296 62.7909 74.6628L64.5052 64.8956C64.5204 64.8225 64.5448 64.7617 64.5782 64.7131C64.6177 64.6583 64.6937 64.6279 64.8092 64.6279H65.5023C65.5752 64.6279 65.6299 64.6492 65.6724 64.6888C65.712 64.7313 65.7241 64.7983 65.7089 64.8956L65.2591 67.4985C65.4931 67.4437 65.7514 67.3982 66.0372 67.3647C66.3198 67.3252 66.5964 67.3039 66.864 67.3039C67.7453 67.3039 68.3958 67.5168 68.8093 67.9364C69.2226 68.3591 69.4293 68.8821 69.4293 69.5055Z" fill="white"/>
<path d="M79.4656 69.8828C79.4656 70.0044 79.4564 70.1321 79.4412 70.2599C79.4321 70.3907 79.4199 70.5213 79.4047 70.6491L79.2224 71.6951C79.0521 72.7351 78.6753 73.5531 78.0917 74.1522C77.5081 74.7451 76.6691 75.0401 75.575 75.0401C74.7543 75.0401 74.1312 74.7969 73.7026 74.3103C73.271 73.8238 73.0583 73.2034 73.0583 72.4493C73.0583 72.3215 73.0613 72.1938 73.0704 72.0723C73.0855 71.9506 73.1069 71.8259 73.1312 71.6951L73.3014 70.6491C73.6905 68.4201 74.9002 67.3042 76.9367 67.3042C77.7786 67.3042 78.4108 67.5475 78.8333 68.034C79.2528 68.5144 79.4656 69.1287 79.4656 69.8828ZM78.2619 69.8707C78.2619 69.378 78.1433 69.004 77.9093 68.7516C77.6813 68.4932 77.2953 68.3624 76.7543 68.3624C76.1616 68.3624 75.6661 68.5692 75.271 68.9827C74.8819 69.3902 74.6297 69.9436 74.5172 70.6491L74.3348 71.6951C74.2771 71.9962 74.2497 72.2638 74.2497 72.498C74.2497 72.9845 74.3652 73.3554 74.6023 73.6048C74.8455 73.8572 75.2284 73.9818 75.7573 73.9818C76.3561 73.9818 76.8516 73.769 77.2406 73.3373C77.6357 72.9085 77.8971 72.3611 78.0188 71.6951L78.2011 70.6491C78.2254 70.5032 78.2406 70.3694 78.2497 70.2477C78.2558 70.12 78.2619 69.9922 78.2619 69.8707Z" fill="white"/>
<path d="M89.3619 69.8828C89.3619 70.0044 89.3525 70.1321 89.337 70.2599C89.3285 70.3907 89.3165 70.5213 89.301 70.6491L89.1183 71.6951C88.9485 72.7351 88.5711 73.5531 87.9879 74.1522C87.4046 74.7451 86.5649 75.0401 85.4711 75.0401C84.6504 75.0401 84.0273 74.7969 83.5988 74.3103C83.1672 73.8238 82.9544 73.2034 82.9544 72.4493C82.9544 72.3215 82.9574 72.1938 82.9666 72.0723C82.9817 71.9506 83.003 71.8259 83.0273 71.6951L83.1975 70.6491C83.5866 68.4201 84.7963 67.3042 86.8325 67.3042C87.6748 67.3042 88.3069 67.5475 88.7298 68.034C89.1492 68.5144 89.3619 69.1287 89.3619 69.8828ZM88.1577 69.8707C88.1577 69.378 88.0393 69.004 87.8052 68.7516C87.5779 68.4932 87.191 68.3624 86.6507 68.3624C86.058 68.3624 85.5623 68.5692 85.1671 68.9827C84.778 69.3902 84.5258 69.9436 84.4133 70.6491L84.231 71.6951C84.1732 71.9962 84.1458 72.2638 84.1458 72.498C84.1458 72.9845 84.2614 73.3554 84.4984 73.6048C84.7416 73.8572 85.1246 73.9818 85.6534 73.9818C86.2519 73.9818 86.7476 73.769 87.137 73.3373C87.5316 72.9085 87.7932 72.3611 87.915 71.6951L88.0977 70.6491C88.1217 70.5032 88.1371 70.3694 88.1457 70.2477C88.1517 70.12 88.1577 69.9922 88.1577 69.8707Z" fill="white"/>
<path d="M94.7956 64.6279H95.5135C95.6739 64.6279 95.7348 64.7191 95.6953 64.8956L93.9936 74.6628C93.9756 74.7357 93.9482 74.8026 93.9087 74.8574C93.8658 74.9151 93.7929 74.9425 93.6891 74.9425H92.9721C92.8992 74.9425 92.8443 74.9151 92.8143 74.8574C92.7808 74.7935 92.7688 74.7296 92.7774 74.6628L94.492 64.8956C94.516 64.8225 94.5469 64.7617 94.5889 64.7131C94.6283 64.6583 94.6987 64.6279 94.7956 64.6279Z" fill="white"/>
<path d="M109.216 65.7836C108.73 65.7836 108.356 65.8322 108.098 65.9295C107.836 66.0208 107.651 66.1698 107.538 66.3796C107.423 66.5925 107.334 66.8662 107.271 67.2067L106.942 69.1164H111.149C111.319 69.1164 111.392 69.2106 111.368 69.3961L111.283 69.907C111.274 69.98 111.246 70.0469 111.198 70.1017C111.156 70.1594 111.076 70.1868 110.955 70.1868H106.748L106.359 72.4857C106.334 72.6012 106.313 72.7016 106.298 72.7897C106.289 72.8809 106.285 72.9661 106.285 73.0452C106.285 73.3615 106.389 73.5864 106.602 73.7141C106.812 73.8449 107.204 73.9087 107.781 73.9087H110.383C110.511 73.9087 110.565 73.9666 110.541 74.0791L110.42 74.748C110.41 74.7906 110.398 74.8302 110.383 74.8697C110.374 74.9031 110.335 74.9275 110.262 74.9426C110.155 74.9487 109.994 74.9609 109.776 74.9791C109.563 74.9944 109.325 75.0065 109.058 75.0157C108.797 75.0217 108.535 75.0278 108.268 75.0278C108.006 75.0339 107.775 75.04 107.575 75.04C106.797 75.04 106.179 74.8788 105.726 74.5534C105.271 74.2311 105.046 73.7354 105.046 73.0695C105.046 72.9722 105.049 72.8809 105.058 72.7897C105.074 72.6924 105.088 72.5921 105.106 72.4857L106.019 67.2067C106.14 66.5347 106.34 66.0148 106.626 65.6498C106.918 65.2849 107.289 65.0295 107.744 64.8835C108.207 64.7376 108.757 64.6646 109.398 64.6646C110.176 64.6646 110.766 64.6767 111.174 64.7011C111.578 64.7193 111.869 64.7467 112.048 64.7862C112.152 64.7953 112.188 64.8592 112.158 64.9808L112.036 65.6255C112.028 65.7319 111.97 65.7836 111.867 65.7836H109.216Z" fill="white"/>
<path d="M122.55 67.0972C122.55 67.2615 122.537 67.4317 122.513 67.6081L122.501 67.7054C122.38 68.5082 122.082 69.1407 121.614 69.6029C121.143 70.059 120.556 70.3509 119.851 70.4787L121.638 74.6872C121.653 74.7207 121.663 74.7602 121.663 74.8089C121.663 74.9001 121.614 74.9426 121.517 74.9426H120.568C120.486 74.9426 120.428 74.9396 120.398 74.9305C120.365 74.9153 120.328 74.8575 120.289 74.7602L118.562 70.6855C118.495 70.6855 118.428 70.6855 118.355 70.6855C118.282 70.6855 118.209 70.6855 118.137 70.6855C117.908 70.6855 117.644 70.6824 117.347 70.6733C117.046 70.6581 116.805 70.6459 116.629 70.6369L115.936 74.6629C115.927 74.7298 115.9 74.7937 115.851 74.8575C115.802 74.9153 115.729 74.9426 115.632 74.9426H114.89C114.736 74.9426 114.671 74.8514 114.696 74.6629L116.386 65.0782C116.425 64.9017 116.556 64.7984 116.774 64.774C116.969 64.7437 117.215 64.7224 117.516 64.7132C117.814 64.698 118.115 64.6858 118.416 64.6767C118.714 64.6706 118.975 64.6646 119.194 64.6646C119.851 64.6646 120.428 64.7498 120.933 64.92C121.444 65.0842 121.838 65.3457 122.124 65.7107C122.407 66.0694 122.55 66.5317 122.55 67.0972ZM121.322 67.1581C121.322 66.6168 121.131 66.2519 120.751 66.0634C120.367 65.8779 119.784 65.7836 119 65.7836C118.854 65.7836 118.684 65.7836 118.489 65.7836C118.294 65.7836 118.103 65.7897 117.918 65.7958C117.739 65.7958 117.593 65.808 117.48 65.8322L116.823 69.5786C117 69.5878 117.219 69.5968 117.48 69.6029C117.739 69.612 118.021 69.6151 118.331 69.6151C118.848 69.6151 119.316 69.5543 119.729 69.4326C120.149 69.311 120.495 69.1133 120.763 68.8367C121.03 68.5629 121.194 68.1859 121.261 67.7054L121.273 67.6081C121.304 67.447 121.322 67.2979 121.322 67.1581Z" fill="white"/>
<path d="M133.409 67.0729C133.409 67.2371 133.397 67.4226 133.372 67.6324L133.336 67.8149C133.214 68.636 132.941 69.2685 132.521 69.7124C132.108 70.1594 131.591 70.4665 130.977 70.6369C130.369 70.801 129.694 70.8801 128.959 70.8801C128.74 70.8801 128.5 70.874 128.241 70.8557C127.98 70.8406 127.768 70.8284 127.597 70.8193L126.928 74.6629C126.919 74.7298 126.895 74.7937 126.855 74.8575C126.813 74.9153 126.737 74.9426 126.624 74.9426H125.883C125.728 74.9426 125.664 74.8514 125.689 74.6629L127.366 65.1146C127.414 64.9139 127.548 64.7984 127.768 64.774C128.065 64.7345 128.424 64.7071 128.837 64.6889C129.251 64.6737 129.655 64.6646 130.053 64.6646C131.074 64.6646 131.889 64.8562 132.497 65.2363C133.104 65.6194 133.409 66.2306 133.409 67.0729ZM132.157 67.1581C132.157 66.6168 131.968 66.2427 131.597 66.039C131.232 65.8292 130.655 65.7228 129.871 65.7228C129.652 65.7228 129.409 65.7288 129.141 65.7349C128.873 65.7441 128.655 65.7562 128.485 65.7715L127.78 69.7854C127.932 69.7945 128.156 69.8066 128.448 69.8218C128.74 69.8401 128.971 69.8462 129.141 69.8462C130.08 69.8462 130.783 69.6729 131.245 69.3232C131.706 68.9765 131.989 68.4717 132.096 67.8149L132.12 67.6324C132.145 67.4561 132.157 67.2979 132.157 67.1581Z" fill="white"/>
<path d="M138.481 74.8083C138.481 75.1093 138.399 75.3435 138.238 75.5137C138.074 75.678 137.854 75.757 137.581 75.757H136.828C136.794 75.757 136.779 75.7418 136.779 75.7083V72.3148C136.779 72.2844 136.794 72.2661 136.828 72.2661H137.545C137.827 72.2661 138.049 72.3482 138.214 72.5094C138.374 72.6645 138.457 72.8864 138.457 73.1783C138.457 73.5524 138.317 73.8078 138.043 73.9447C138.034 73.9447 138.031 73.9508 138.031 73.9568C138.031 73.9568 138.034 73.9568 138.043 73.9568C138.335 74.1271 138.481 74.413 138.481 74.8083ZM137.143 72.5702C137.135 72.5702 137.131 72.5793 137.131 72.5945V73.7987C137.131 73.8169 137.135 73.823 137.143 73.823H137.545C137.721 73.823 137.86 73.7714 137.958 73.6649C138.055 73.5524 138.104 73.3973 138.104 73.2027C138.104 73.0081 138.055 72.8561 137.958 72.7405C137.86 72.628 137.721 72.5702 137.545 72.5702H137.143ZM137.557 75.4408C137.734 75.4408 137.873 75.386 137.97 75.2705C138.074 75.1489 138.128 74.9846 138.128 74.7718C138.128 74.5528 138.074 74.3887 137.97 74.2731C137.873 74.1514 137.734 74.0907 137.557 74.0907H137.143C137.135 74.0907 137.131 74.0968 137.131 74.1028V75.4286C137.131 75.4378 137.135 75.4408 137.143 75.4408H137.557Z" fill="white"/>
<path d="M138.854 76.7545C138.845 76.7545 138.836 76.7484 138.83 76.7423C138.83 76.7332 138.83 76.721 138.83 76.7058V76.5112C138.83 76.4687 138.845 76.4504 138.879 76.4504C138.976 76.4504 139.052 76.4291 139.109 76.3896C139.173 76.3562 139.222 76.2922 139.255 76.1949C139.295 76.1037 139.331 75.9639 139.365 75.7692C139.371 75.7601 139.371 75.7571 139.365 75.7571C139.365 75.751 139.365 75.745 139.365 75.745L138.733 73.2879V73.2757C138.733 73.2514 138.747 73.2393 138.781 73.2393H139.048C139.079 73.2393 139.1 73.2514 139.109 73.2757L139.547 75.2341C139.547 75.2523 139.547 75.2584 139.547 75.2584C139.553 75.2584 139.56 75.2523 139.56 75.2341L139.997 73.2757C140.003 73.2514 140.021 73.2393 140.046 73.2393H140.326C140.34 73.2393 140.352 73.2453 140.362 73.2514C140.377 73.2605 140.38 73.2727 140.374 73.2879L139.681 75.976C139.614 76.201 139.553 76.3683 139.499 76.4748C139.44 76.5781 139.365 76.6511 139.267 76.6937C139.176 76.7332 139.048 76.7545 138.879 76.7545H138.854Z" fill="white"/>
<path d="M142.497 75.7934C142.255 75.7934 142.054 75.7143 141.902 75.5501C141.747 75.389 141.67 75.1791 141.67 74.9176V74.7959C141.67 74.7656 141.686 74.7473 141.719 74.7473H141.962C142.002 74.7473 142.023 74.7656 142.023 74.7959V74.8933C142.023 75.0727 142.066 75.2186 142.157 75.3311C142.245 75.4376 142.358 75.4893 142.497 75.4893C142.643 75.4893 142.759 75.4376 142.85 75.3311C142.938 75.2277 142.984 75.094 142.984 74.9297C142.984 74.8172 142.96 74.7199 142.911 74.6378C142.868 74.5497 142.814 74.4767 142.741 74.4189C142.674 74.3551 142.558 74.2608 142.388 74.1392C142.224 74.0175 142.096 73.9141 141.999 73.8229C141.902 73.7347 141.82 73.6283 141.755 73.5067C141.698 73.385 141.67 73.239 141.67 73.0688C141.67 72.8103 141.743 72.6065 141.889 72.4606C142.042 72.3085 142.236 72.2295 142.473 72.2295C142.722 72.2295 142.926 72.3116 143.081 72.4728C143.233 72.637 143.312 72.8559 143.312 73.1295V73.2512C143.312 73.2847 143.294 73.2999 143.263 73.2999H143.008C142.974 73.2999 142.96 73.2847 142.96 73.2512V73.1295C142.96 72.9532 142.914 72.8103 142.826 72.7038C142.734 72.5913 142.619 72.5336 142.473 72.5336C142.342 72.5336 142.233 72.5823 142.145 72.6796C142.062 72.7769 142.023 72.9106 142.023 73.0809C142.023 73.1874 142.038 73.2816 142.072 73.3607C142.111 73.4336 142.169 73.5067 142.242 73.5796C142.321 73.6465 142.436 73.7347 142.582 73.8472C142.783 73.9932 142.935 74.1148 143.033 74.2121C143.129 74.3033 143.202 74.4006 143.251 74.504C143.306 74.6105 143.336 74.7412 143.336 74.8933C143.336 75.17 143.257 75.389 143.105 75.5501C142.95 75.7143 142.747 75.7934 142.497 75.7934Z" fill="white"/>
<path d="M144.557 75.7934C144.32 75.7934 144.135 75.7265 143.997 75.5866C143.858 75.4498 143.791 75.2673 143.791 75.0393V73.9567C143.791 73.7317 143.858 73.5493 143.997 73.4094C144.143 73.2635 144.329 73.1904 144.557 73.1904C144.718 73.1904 144.855 73.2239 144.97 73.2877C145.092 73.3547 145.183 73.4398 145.25 73.5432C145.314 73.6496 145.347 73.7621 145.347 73.8838V73.9324C145.347 73.9659 145.329 73.9811 145.299 73.9811L145.043 73.9933C145.01 73.9933 144.995 73.9781 144.995 73.9446V73.908C144.995 73.8047 144.952 73.7104 144.873 73.6283C144.791 73.5493 144.684 73.5067 144.557 73.5067C144.436 73.5067 144.332 73.5523 144.253 73.6405C144.18 73.7226 144.143 73.8351 144.143 73.9811V75.0028C144.143 75.1488 144.18 75.2673 144.253 75.3556C144.332 75.4468 144.436 75.4893 144.557 75.4893C144.684 75.4893 144.791 75.4498 144.873 75.3677C144.952 75.2886 144.995 75.1913 144.995 75.0757V75.0393C144.995 75.0089 145.01 74.9906 145.043 74.9906L145.299 75.0028C145.329 75.0028 145.347 75.0211 145.347 75.0515V75.1001C145.347 75.3038 145.275 75.4711 145.129 75.5988C144.989 75.7296 144.8 75.7934 144.557 75.7934Z" fill="white"/>
<path d="M146.692 73.2026C146.772 73.2026 146.845 73.2239 146.912 73.2635C146.936 73.2817 146.942 73.2999 146.936 73.3242L146.875 73.5919C146.866 73.6162 146.845 73.6253 146.814 73.6162C146.772 73.601 146.723 73.5919 146.668 73.5919C146.635 73.5919 146.613 73.5919 146.607 73.5919C146.486 73.601 146.383 73.6648 146.304 73.7865C146.231 73.902 146.194 74.0419 146.194 74.2122V75.7083C146.194 75.7417 146.176 75.7569 146.146 75.7569H145.89C145.857 75.7569 145.842 75.7417 145.842 75.7083V73.2878C145.842 73.2574 145.857 73.2391 145.89 73.2391H146.146C146.176 73.2391 146.194 73.2574 146.194 73.2878V73.5797C146.194 73.5888 146.194 73.5919 146.194 73.5919C146.2 73.5919 146.21 73.5919 146.219 73.5919C146.316 73.3334 146.474 73.2026 146.692 73.2026Z" fill="white"/>
<path d="M147.515 72.7768C147.423 72.7768 147.356 72.7525 147.308 72.7038C147.259 72.6491 147.235 72.5791 147.235 72.4971C147.235 72.418 147.259 72.3512 147.308 72.3025C147.356 72.2478 147.423 72.2173 147.515 72.2173C147.588 72.2173 147.649 72.2478 147.697 72.3025C147.752 72.3512 147.783 72.418 147.783 72.4971C147.783 72.5791 147.752 72.6491 147.697 72.7038C147.649 72.7525 147.588 72.7768 147.515 72.7768ZM147.381 75.7569C147.348 75.7569 147.332 75.7416 147.332 75.7083V73.2877C147.332 73.2573 147.348 73.239 147.381 73.239H147.636C147.667 73.239 147.685 73.2573 147.685 73.2877V75.7083C147.685 75.7416 147.667 75.7569 147.636 75.7569H147.381Z" fill="white"/>
<path d="M148.247 75.7571C148.213 75.7571 148.198 75.7419 148.198 75.7084V75.4651C148.198 75.4409 148.201 75.4226 148.21 75.4044L149.231 73.5798C149.231 73.5737 149.231 73.5676 149.231 73.5676C149.231 73.5616 149.225 73.5555 149.219 73.5555H148.259C148.225 73.5555 148.21 73.5403 148.21 73.5069V73.2879C148.21 73.2575 148.225 73.2393 148.259 73.2393H149.609C149.639 73.2393 149.657 73.2575 149.657 73.2879V73.519C149.657 73.5434 149.651 73.5676 149.645 73.592L148.611 75.4044C148.611 75.4135 148.611 75.4226 148.611 75.4287C148.611 75.4287 148.614 75.4287 148.623 75.4287H149.621C149.651 75.4287 149.669 75.4469 149.669 75.4773V75.7084C149.669 75.7419 149.651 75.7571 149.621 75.7571H148.247Z" fill="white"/>
<path d="M150.871 73.1904C151.096 73.1904 151.279 73.2695 151.418 73.4215C151.564 73.5767 151.637 73.7804 151.637 74.0297V75.7082C151.637 75.7417 151.619 75.7569 151.588 75.7569H151.333C151.3 75.7569 151.285 75.7417 151.285 75.7082V75.5623C151.285 75.5563 151.279 75.5502 151.273 75.5502C151.263 75.5441 151.261 75.5441 151.261 75.5502C151.139 75.7143 150.95 75.7934 150.701 75.7934C150.521 75.7934 150.363 75.7417 150.227 75.6353C150.087 75.5319 150.02 75.3495 150.02 75.0879C150.02 74.8052 150.099 74.5984 150.263 74.4676C150.434 74.3307 150.646 74.2608 150.908 74.2608H151.261C151.275 74.2608 151.285 74.2578 151.285 74.2486V74.054C151.285 73.8838 151.242 73.75 151.163 73.6527C151.09 73.5554 150.987 73.5067 150.859 73.5067C150.761 73.5067 150.676 73.5402 150.604 73.604C150.531 73.6709 150.485 73.7561 150.47 73.8594C150.47 73.8929 150.452 73.908 150.422 73.908L150.142 73.8959C150.123 73.8959 150.111 73.8929 150.105 73.8838C150.096 73.8777 150.096 73.8655 150.105 73.8473C150.121 73.6527 150.196 73.4945 150.336 73.3729C150.482 73.2513 150.658 73.1904 150.871 73.1904ZM150.774 75.4893C150.911 75.4893 151.029 75.4468 151.127 75.3556C151.23 75.2673 151.285 75.1458 151.285 74.9906V74.5649C151.285 74.5588 151.275 74.5527 151.261 74.5527H150.908C150.743 74.5527 150.616 74.5984 150.519 74.6865C150.428 74.7686 150.385 74.8903 150.385 75.0515C150.385 75.1974 150.422 75.3069 150.495 75.3798C150.568 75.4529 150.658 75.4893 150.774 75.4893Z" fill="white"/>
</svg>
