<svg width="77" height="77" viewBox="0 0 77 77" fill="none" xmlns="http://www.w3.org/2000/svg">
<path d="M14.4375 72.1875C14.4375 73.5158 13.3595 74.5938 12.0312 74.5938H4.8125C3.48425 74.5938 2.40625 73.5158 2.40625 72.1875V31.2812C2.40625 29.9518 3.48425 28.875 4.8125 28.875H12.0312C13.3595 28.875 14.4375 29.9518 14.4375 31.2812V72.1875Z" fill="#45AAB8"/>
<path d="M69.7812 38.5H57.75C57.0847 38.5 56.5469 39.0354 56.5469 39.7031C56.5469 40.366 57.0847 40.9062 57.75 40.9062H67.375C70.0327 40.9062 72.1875 43.0586 72.1875 45.7188C72.1875 48.3765 70.0327 50.5312 67.375 50.5312H55.3438C54.6784 50.5312 54.1406 51.0666 54.1406 51.7344C54.1406 52.3973 54.6784 52.9375 55.3438 52.9375H64.9688C67.6265 52.9375 69.7812 55.0899 69.7812 57.75C69.7812 60.4077 67.6265 62.5625 64.9688 62.5625H52.9375C52.2722 62.5625 51.7344 63.0979 51.7344 63.7656C51.7344 64.4285 52.2722 64.9688 52.9375 64.9688H62.5625C65.2202 64.9688 67.375 67.1211 67.375 69.7812C67.375 72.4389 65.2202 74.5938 62.5625 74.5938H34.8906C33.6875 74.5938 29.242 74.6335 26.038 71.3465C22.2963 67.5061 19.3847 67.3774 16.8438 67.375V36.0938H19.25C24.0625 36.0938 27.1545 34.2024 30.3789 26.4688L39.7031 4.8125C40.33 3.48305 41.0819 2.40625 42.4114 2.40625H46.9219C48.2501 2.40625 49.4797 3.40966 49.3281 4.8125L46.9339 26.4688C46.7751 28.4804 48.0336 28.875 49.3281 28.875H69.7812C72.439 28.875 74.5938 31.0274 74.5938 33.6875C74.5938 36.3452 72.439 38.5 69.7812 38.5Z" fill="#F9EBB2"/>
<path d="M8.42188 69.7812C9.08634 69.7812 9.625 69.2426 9.625 68.5781C9.625 67.9137 9.08634 67.375 8.42188 67.375C7.75741 67.375 7.21875 67.9137 7.21875 68.5781C7.21875 69.2426 7.75741 69.7812 8.42188 69.7812Z" fill="#F76D57"/>
<path d="M77 33.6875C77 29.7003 73.7672 26.4688 69.7812 26.4688H49.3281L51.7344 4.8125C51.9858 2.18006 50.186 0 47.5258 0H42.7121C39.7031 0 38.4507 2.10547 37.2969 4.8125L27.6719 26.4688C25.0791 32.6865 21.6562 33.6875 19.25 33.6875C18.0469 33.6875 16.8438 33.6875 16.8438 33.6875V31.2812C16.8438 28.6187 14.6914 26.4688 12.0312 26.4688H4.8125C2.15239 26.4688 0 28.6187 0 31.2812V72.1875C0 74.8452 2.15239 77 4.8125 77H12.0312C14.6914 77 16.8438 74.8452 16.8438 72.1875V69.7812C18.0469 69.7812 21.2135 69.8426 24.3152 73.0261C28.0617 76.8713 32.5361 77 34.8906 77H62.5625C66.5485 77 69.7812 73.766 69.7812 69.7812C69.7812 67.6974 68.8945 65.8242 67.4833 64.508C70.2276 63.4865 72.1875 60.8493 72.1875 57.75C72.1875 55.6662 71.3008 53.7929 69.8895 52.4767C72.6339 51.4552 74.5938 48.818 74.5938 45.7188C74.5938 43.6349 73.707 41.7617 72.2958 40.4455C75.0401 39.424 77 36.7868 77 33.6875ZM14.4375 72.1875C14.4375 73.5157 13.3595 74.5938 12.0312 74.5938H4.8125C3.48425 74.5938 2.40625 73.5157 2.40625 72.1875V31.2812C2.40625 29.9518 3.48425 28.875 4.8125 28.875H12.0312C13.3595 28.875 14.4375 29.9518 14.4375 31.2812V72.1875ZM69.7812 38.5H57.75C57.0847 38.5 56.5469 39.0354 56.5469 39.7031C56.5469 40.366 57.0847 40.9062 57.75 40.9062H67.375C70.0327 40.9062 72.1875 43.0586 72.1875 45.7188C72.1875 48.3765 70.0327 50.5312 67.375 50.5312H55.3438C54.6784 50.5312 54.1406 51.0666 54.1406 51.7344C54.1406 52.3973 54.6784 52.9375 55.3438 52.9375H64.9688C67.6264 52.9375 69.7812 55.0899 69.7812 57.75C69.7812 60.4077 67.6264 62.5625 64.9688 62.5625H52.9375C52.2722 62.5625 51.7344 63.0979 51.7344 63.7656C51.7344 64.4285 52.2722 64.9688 52.9375 64.9688H62.5625C65.2202 64.9688 67.375 67.1211 67.375 69.7812C67.375 72.4389 65.2202 74.5938 62.5625 74.5938H34.8906C33.6875 74.5938 29.242 74.6335 26.038 71.3465C22.2963 67.5061 19.3848 67.3774 16.8438 67.375V36.0938H19.25C24.0625 36.0938 27.1545 34.2024 30.3789 26.4688L39.7031 4.8125C40.33 3.48305 41.0819 2.40625 42.4114 2.40625H46.9219C48.2501 2.40625 49.4797 3.40966 49.3281 4.8125L46.9339 26.4688C46.7751 28.4804 48.0336 28.875 49.3281 28.875H69.7812C72.4389 28.875 74.5938 31.0274 74.5938 33.6875C74.5938 36.3452 72.4389 38.5 69.7812 38.5Z" fill="#394240"/>
<path d="M8.42188 64.9688C6.4283 64.9688 4.8125 66.5833 4.8125 68.5781C4.8125 70.5705 6.4283 72.1875 8.42188 72.1875C10.4155 72.1875 12.0312 70.5705 12.0312 68.5781C12.0312 66.5833 10.4155 64.9688 8.42188 64.9688ZM8.42188 69.7812C7.75655 69.7812 7.21875 69.241 7.21875 68.5781C7.21875 67.9128 7.75655 67.375 8.42188 67.375C9.0872 67.375 9.625 67.9128 9.625 68.5781C9.625 69.241 9.0872 69.7812 8.42188 69.7812Z" fill="#394240"/>
</svg>
