<svg width="162" height="80" viewBox="0 0 162 80" fill="none" xmlns="http://www.w3.org/2000/svg">
<path d="M12.3612 53.2677V24.5256H34.9509V29.1842H18.3673V36.3971H33.6987V41.0557H18.3673V48.6214H35.7777V53.2677H12.3612Z" fill="#008479"/>
<path d="M54.6066 53.2677C54.5489 53.067 54.4851 52.5561 54.4121 51.7351C54.3392 50.908 54.3026 50.2238 54.3026 49.6795H54.2175C52.9836 52.3493 50.6339 53.6813 47.1659 53.6813C44.5944 53.6813 42.6096 52.6808 41.2084 50.6769C39.8133 48.6669 39.1172 45.8602 39.1172 42.2598C39.1172 38.6047 39.8528 35.7767 41.33 33.7819C42.8041 31.7871 44.8923 30.7898 47.5914 30.7898C49.1537 30.7898 50.5033 31.1182 51.64 31.7749C52.7738 32.4257 53.6491 33.3927 54.2662 34.6821H54.3026L54.2662 31.0573V23.0052H59.9926V48.451C59.9926 49.8133 60.0443 51.4189 60.1507 53.2677H54.6066ZM54.3392 42.1139C54.3392 39.7298 53.9409 37.8992 53.1476 36.616C52.3513 35.3267 51.1811 34.6821 49.6339 34.6821C48.1021 34.6821 46.9592 35.3085 46.2054 36.5552C45.4576 37.7959 45.0868 39.6994 45.0868 42.2598C45.0868 47.2651 46.5884 49.7647 49.5975 49.7647C51.1051 49.7647 52.2723 49.1048 53.099 47.782C53.9258 46.4531 54.3392 44.5647 54.3392 42.1139Z" fill="#008479"/>
<path d="M71.2136 31.2034V43.5857C71.2136 47.4537 72.5175 49.3876 75.1285 49.3876C76.5145 49.3876 77.6331 48.7977 78.4841 47.6117C79.3352 46.4198 79.7607 44.8932 79.7607 43.0262V31.2034H85.4871V48.3294C85.4871 50.2116 85.5389 51.8568 85.6452 53.2677H80.1862C80.0221 51.3155 79.9431 49.8498 79.9431 48.8767H79.8337C79.0708 50.5553 78.1011 51.7777 76.9279 52.5379C75.7516 53.2982 74.3564 53.6813 72.7455 53.6813C70.402 53.6813 68.6056 52.9636 67.3595 51.5284C66.1102 50.0931 65.4872 47.9888 65.4872 45.2156V31.2034H71.2136Z" fill="#008479"/>
<path d="M89.8509 53.2678V49.2903C90.5954 47.6452 91.6563 46.0396 93.0364 44.4736C94.4225 42.9106 96.1611 41.2807 98.2522 39.5839C100.262 37.954 101.672 36.6099 102.483 35.5456C103.292 34.4844 103.699 33.4414 103.699 32.4196C103.699 29.9231 102.438 28.6733 99.9178 28.6733C98.693 28.6733 97.7573 29.0018 97.1097 29.6586C96.4681 30.3154 96.0547 31.3067 95.8694 32.6264L90.0944 32.298C90.4161 29.6404 91.4102 27.609 93.0733 26.2042C94.7415 24.8023 97.0119 24.0999 99.8818 24.0999C102.976 24.0999 105.352 24.8115 107.006 26.2285C108.666 27.6395 109.499 29.6221 109.499 32.1764C109.499 33.5235 109.234 34.7429 108.709 35.8376C108.179 36.9262 107.498 37.9267 106.665 38.8419C105.839 39.7603 104.918 40.6178 103.906 41.4206C102.891 42.2234 101.912 43.0079 100.963 43.7681C100.016 44.5314 99.1459 45.3007 98.3619 46.0792C97.584 46.8516 97.0033 47.6787 96.6234 48.5605H109.948V53.2678H89.8509Z" fill="#FF914D"/>
<path d="M134.72 53.2677L132.166 45.921H121.223L118.671 53.2677H112.664L123.133 24.5256H130.233L140.664 53.2677H134.72ZM126.683 28.9531L126.561 29.4032C126.421 29.8988 126.257 30.4583 126.063 31.0817C125.874 31.7081 124.707 35.1443 122.561 41.3963H130.829L127.984 33.1373L127.108 30.3641L126.683 28.9531Z" fill="#008479"/>
<path d="M144.678 53.2677V23.0052H150.404V53.2677H144.678Z" fill="#008479"/>
<path d="M156.274 53.2677V23.0052H162V53.2677H156.274Z" fill="#008479"/>
<mask id="mask0_28_2203" style="mask-type:luminance" maskUnits="userSpaceOnUse" x="3" y="22" width="7" height="10">
<path d="M3.79028 22.5631H9.21582V31.8651H3.79028V22.5631Z" fill="white"/>
</mask>
<g mask="url(#mask0_28_2203)">
<mask id="mask1_28_2203" style="mask-type:luminance" maskUnits="userSpaceOnUse" x="-1" y="-1" width="51" height="33">
<path d="M-0.249268 1.13423L48.8147 -0.118599L49.5989 30.5788L0.534929 31.8225L-0.249268 1.13423Z" fill="white"/>
</mask>
<g mask="url(#mask1_28_2203)">
<mask id="mask2_28_2203" style="mask-type:luminance" maskUnits="userSpaceOnUse" x="-1" y="-1" width="51" height="33">
<path d="M-0.249268 1.13423L48.8147 -0.118599L49.5989 30.5788L0.534929 31.8225L-0.249268 1.13423Z" fill="white"/>
</mask>
<g mask="url(#mask2_28_2203)">
<path fill-rule="evenodd" clip-rule="evenodd" d="M5.78723 22.8946C4.4772 24.7464 4.09118 27.2399 4.3921 30.2261C6.35562 31.8012 7.80548 31.7039 8.86933 30.3325C8.73861 24.564 7.81459 21.7178 5.78723 22.8946Z" fill="#F28F53"/>
</g>
</g>
</g>
<mask id="mask3_28_2203" style="mask-type:luminance" maskUnits="userSpaceOnUse" x="4" y="24" width="2" height="8">
<path d="M4.73563 24.8985H5.67788V31.1261H4.73563V24.8985Z" fill="white"/>
</mask>
<g mask="url(#mask3_28_2203)">
<mask id="mask4_28_2203" style="mask-type:luminance" maskUnits="userSpaceOnUse" x="-1" y="-1" width="51" height="33">
<path d="M-0.249207 1.13423L48.8148 -0.118599L49.599 30.5788L0.53499 31.8225L-0.249207 1.13423Z" fill="white"/>
</mask>
<g mask="url(#mask4_28_2203)">
<mask id="mask5_28_2203" style="mask-type:luminance" maskUnits="userSpaceOnUse" x="-1" y="-1" width="51" height="33">
<path d="M-0.249207 1.13423L48.8148 -0.118599L49.599 30.5788L0.53499 31.8225L-0.249207 1.13423Z" fill="white"/>
</mask>
<g mask="url(#mask5_28_2203)">
<path fill-rule="evenodd" clip-rule="evenodd" d="M5.66873 31.0623L5.35567 25.1752L4.92709 30.6427C5.19457 30.8038 5.43165 30.9437 5.66873 31.0623Z" fill="#FABB5B"/>
</g>
</g>
</g>
<mask id="mask6_28_2203" style="mask-type:luminance" maskUnits="userSpaceOnUse" x="6" y="26" width="2" height="6">
<path d="M6.10336 26.4554H7.56841V31.865H6.10336V26.4554Z" fill="white"/>
</mask>
<g mask="url(#mask6_28_2203)">
<mask id="mask7_28_2203" style="mask-type:luminance" maskUnits="userSpaceOnUse" x="-1" y="-1" width="51" height="33">
<path d="M-0.249237 1.13422L48.8148 -0.118607L49.599 30.5788L0.53496 31.8225L-0.249237 1.13422Z" fill="white"/>
</mask>
<g mask="url(#mask7_28_2203)">
<mask id="mask8_28_2203" style="mask-type:luminance" maskUnits="userSpaceOnUse" x="-1" y="-1" width="51" height="33">
<path d="M-0.249237 1.13422L48.8148 -0.118607L49.599 30.5788L0.53496 31.8225L-0.249237 1.13422Z" fill="white"/>
</mask>
<g mask="url(#mask8_28_2203)">
<path fill-rule="evenodd" clip-rule="evenodd" d="M6.60183 27.7873L6.67781 30.2899L6.22797 27.0271L6.55015 31.1901C6.78419 31.2539 7.02128 31.2874 7.23708 31.2965H7.25836L6.60183 27.7873Z" fill="#FABB5B"/>
</g>
</g>
</g>
<mask id="mask9_28_2203" style="mask-type:luminance" maskUnits="userSpaceOnUse" x="6" y="25" width="3" height="7">
<path d="M6.8815 25.4732H8.43774V31.865H6.8815V25.4732Z" fill="white"/>
</mask>
<g mask="url(#mask9_28_2203)">
<mask id="mask10_28_2203" style="mask-type:luminance" maskUnits="userSpaceOnUse" x="-1" y="-1" width="51" height="33">
<path d="M-0.249207 1.13422L48.8147 -0.118607L49.5989 30.5788L0.53499 31.8225L-0.249207 1.13422Z" fill="white"/>
</mask>
<g mask="url(#mask10_28_2203)">
<mask id="mask11_28_2203" style="mask-type:luminance" maskUnits="userSpaceOnUse" x="-1" y="-1" width="51" height="33">
<path d="M-0.249207 1.13422L48.8147 -0.118607L49.5989 30.5788L0.53499 31.8225L-0.249207 1.13422Z" fill="white"/>
</mask>
<g mask="url(#mask11_28_2203)">
<path fill-rule="evenodd" clip-rule="evenodd" d="M7.50461 25.6131L7.70826 31.266C7.84807 31.2113 7.98789 31.1353 8.1277 31.0501L8.19153 28.3225L7.81464 28.1492L7.50461 25.6131Z" fill="#FABB5B"/>
</g>
</g>
</g>
<mask id="mask12_28_2203" style="mask-type:luminance" maskUnits="userSpaceOnUse" x="12" y="11" width="25" height="13">
<path d="M12.3283 11.3241H36.9059V23.5909H12.3283V11.3241Z" fill="white"/>
</mask>
<g mask="url(#mask12_28_2203)">
<mask id="mask13_28_2203" style="mask-type:luminance" maskUnits="userSpaceOnUse" x="-1" y="-1" width="51" height="33">
<path d="M-0.249268 1.13423L48.8147 -0.118607L49.5989 30.5788L0.534929 31.8225L-0.249268 1.13423Z" fill="white"/>
</mask>
<g mask="url(#mask13_28_2203)">
<mask id="mask14_28_2203" style="mask-type:luminance" maskUnits="userSpaceOnUse" x="-1" y="-1" width="51" height="33">
<path d="M-0.249268 1.13423L48.8147 -0.118607L49.5989 30.5788L0.534929 31.8225L-0.249268 1.13423Z" fill="white"/>
</mask>
<g mask="url(#mask14_28_2203)">
<path d="M19.3375 19.9206C22.7843 19.4797 26.8876 19.6408 30.3344 20.3585C32.3405 20.7751 35.5624 21.6843 36.5928 23.3963C36.5837 23.302 36.5624 23.2047 36.5199 23.1074C36.5411 21.7938 36.5715 20.3676 36.6049 18.9141C36.6262 17.7586 36.6475 16.5787 36.6809 15.414C36.4651 14.1916 34.1672 12.9935 30.687 12.2668C27.2614 11.5491 23.1702 11.3667 19.7569 11.7863C15.9757 12.2334 13.4012 13.3463 12.4772 14.9093C12.4559 15.0492 12.4012 15.4019 12.4012 15.7455C12.4134 16.5909 12.4225 17.6187 12.4347 18.6677C12.4225 18.6677 12.4225 18.6677 12.4134 18.6556C12.4225 20.3463 12.4225 21.663 12.4134 22.5084C13.4863 21.4593 15.5137 20.4102 19.3375 19.9206Z" fill="#04857A"/>
</g>
</g>
</g>
<mask id="mask15_28_2203" style="mask-type:luminance" maskUnits="userSpaceOnUse" x="0" y="0" width="49" height="18">
<path d="M0 0H48.8998V17.8924H0V0Z" fill="white"/>
</mask>
<g mask="url(#mask15_28_2203)">
<mask id="mask16_28_2203" style="mask-type:luminance" maskUnits="userSpaceOnUse" x="-1" y="-1" width="51" height="33">
<path d="M-0.249237 1.13423L48.8148 -0.118595L49.599 30.5788L0.53496 31.8225L-0.249237 1.13423Z" fill="white"/>
</mask>
<g mask="url(#mask16_28_2203)">
<mask id="mask17_28_2203" style="mask-type:luminance" maskUnits="userSpaceOnUse" x="-1" y="-1" width="51" height="33">
<path d="M-0.249237 1.13423L48.8148 -0.118595L49.599 30.5788L0.53496 31.8225L-0.249237 1.13423Z" fill="white"/>
</mask>
<g mask="url(#mask17_28_2203)">
<path d="M48.599 11.0687L23.9545 0.556466C23.8572 0.513894 23.7509 0.526057 23.6536 0.56863L0.25535 11.9566C0.115533 12.0204 0.030426 12.1695 0.030426 12.3306C0.030426 12.4918 0.12769 12.6317 0.267508 12.6955L11.5958 17.8437C11.5958 17.1474 11.5837 16.3993 11.5745 15.5965C11.5624 15.0492 11.6718 14.5262 11.6718 14.5049L11.6809 14.4288L11.7143 14.365C12.4347 13.0695 14.3983 11.4001 19.6293 10.7676C23.1277 10.351 27.3162 10.5335 30.8055 11.2603C33.146 11.7529 37.1187 12.9084 37.4409 15.1556L37.453 15.189V15.2195C37.4317 16.1104 37.4195 16.9983 37.3983 17.8863L48.6203 11.8076C48.7509 11.7316 48.836 11.5917 48.8239 11.4305C48.836 11.2725 48.7388 11.1326 48.599 11.0687Z" fill="#04857A"/>
</g>
</g>
</g>
<mask id="mask18_28_2203" style="mask-type:luminance" maskUnits="userSpaceOnUse" x="5" y="13" width="2" height="10">
<path d="M5.67789 13.2216H6.88153V22.5631H5.67789V13.2216Z" fill="white"/>
</mask>
<g mask="url(#mask18_28_2203)">
<mask id="mask19_28_2203" style="mask-type:luminance" maskUnits="userSpaceOnUse" x="-1" y="-1" width="51" height="33">
<path d="M-0.249176 1.13423L48.8148 -0.118599L49.599 30.5788L0.535021 31.8225L-0.249176 1.13423Z" fill="white"/>
</mask>
<g mask="url(#mask19_28_2203)">
<mask id="mask20_28_2203" style="mask-type:luminance" maskUnits="userSpaceOnUse" x="-1" y="-1" width="51" height="33">
<path d="M-0.249176 1.13423L48.8148 -0.118599L49.599 30.5788L0.535021 31.8225L-0.249176 1.13423Z" fill="white"/>
</mask>
<g mask="url(#mask20_28_2203)">
<path d="M6.69002 21.8455L5.93622 21.8576L5.88455 13.4345L6.63531 13.4223L6.69002 21.8455Z" fill="#0B5D56"/>
</g>
</g>
</g>
<mask id="mask21_28_2203" style="mask-type:luminance" maskUnits="userSpaceOnUse" x="4" y="20" width="5" height="4">
<path d="M4.73563 20.2277H8.43776V23.3416H4.73563V20.2277Z" fill="white"/>
</mask>
<g mask="url(#mask21_28_2203)">
<mask id="mask22_28_2203" style="mask-type:luminance" maskUnits="userSpaceOnUse" x="-1" y="-1" width="51" height="33">
<path d="M-0.249207 1.13421L48.8148 -0.118622L49.599 30.5788L0.53499 31.8225L-0.249207 1.13421Z" fill="white"/>
</mask>
<g mask="url(#mask22_28_2203)">
<mask id="mask23_28_2203" style="mask-type:luminance" maskUnits="userSpaceOnUse" x="-1" y="-1" width="51" height="33">
<path d="M-0.249207 1.13421L48.8148 -0.118622L49.599 30.5788L0.53499 31.8225L-0.249207 1.13421Z" fill="white"/>
</mask>
<g mask="url(#mask23_28_2203)">
<path fill-rule="evenodd" clip-rule="evenodd" d="M6.55931 20.626C7.34351 20.6473 7.95445 21.2585 7.93317 21.9944C7.92406 22.7334 7.26752 23.3112 6.48332 23.302C5.70217 23.2807 5.08818 22.6695 5.10034 21.9306C5.12162 21.1825 5.77512 20.6048 6.55931 20.626Z" fill="#FABB5B"/>
</g>
</g>
</g>
<path d="M12.3891 22.5083L23.9454 11.5613L36.5199 23.1074" stroke="white" stroke-width="0.183661" stroke-miterlimit="10"/>
<mask id="mask24_28_2203" style="mask-type:luminance" maskUnits="userSpaceOnUse" x="12" y="61" width="150" height="19">
<path d="M12.6475 61.8022H161.937V79.1807H12.6475V61.8022Z" fill="white"/>
</mask>
<g mask="url(#mask24_28_2203)">
<mask id="mask25_28_2203" style="mask-type:luminance" maskUnits="userSpaceOnUse" x="12" y="61" width="150" height="19">
<path d="M21.3344 61.8022H153.222C155.526 61.8022 157.736 62.7175 159.365 64.3475C160.995 65.9773 161.909 68.188 161.909 70.493C161.909 72.7979 160.995 75.0056 159.365 76.6356C157.736 78.2654 155.526 79.1807 153.222 79.1807H21.3344C19.0305 79.1807 16.8208 78.2654 15.1915 76.6356C13.5624 75.0056 12.6475 72.7979 12.6475 70.493C12.6475 68.188 13.5624 65.9773 15.1915 64.3475C16.8208 62.7175 19.0305 61.8022 21.3344 61.8022Z" fill="white"/>
</mask>
<g mask="url(#mask25_28_2203)">
<path d="M12.6475 61.8022H161.937V79.1807H12.6475V61.8022Z" fill="#F28F53"/>
</g>
</g>
<path d="M48.7883 64.6644C49.0557 64.6644 49.3536 64.6736 49.6879 64.6888C50.0284 64.6979 50.3475 64.7192 50.6484 64.7496C50.9463 64.7739 51.1773 64.7983 51.3414 64.8226C51.4387 64.8317 51.4995 64.853 51.5238 64.8834C51.5481 64.9169 51.5511 64.9746 51.536 65.0537L51.4387 65.6497C51.4296 65.7318 51.4052 65.7927 51.3658 65.8321C51.3323 65.8656 51.2563 65.8778 51.1347 65.8687C50.8338 65.8534 50.466 65.8382 50.0283 65.82C49.5967 65.7957 49.1833 65.7835 48.7883 65.7835C48.4144 65.7835 48.0527 65.8169 47.7062 65.8808C47.3567 65.9477 47.0679 66.0815 46.843 66.2822C46.615 66.4859 46.5025 66.787 46.5025 67.1823C46.5025 67.5168 46.5937 67.7905 46.7822 68.0094C46.9676 68.2222 47.2837 68.4777 47.7304 68.7757L48.849 69.5298C49.4873 69.9525 49.9342 70.363 50.1864 70.7583C50.4448 71.1567 50.5755 71.6067 50.5755 72.1084C50.5755 72.7501 50.4083 73.2883 50.077 73.7262C49.7426 74.1641 49.2898 74.4925 48.7153 74.7115C48.1378 74.9304 47.4873 75.0398 46.7578 75.0398C46.384 75.0398 45.9736 75.0186 45.5299 74.979C45.083 74.9395 44.7152 74.8939 44.4235 74.8452C44.2594 74.8209 44.1864 74.7418 44.2046 74.602L44.3019 74.0546C44.3171 73.9512 44.3415 73.8813 44.3748 73.8479C44.4144 73.8174 44.4964 73.8113 44.618 73.8357C44.8278 73.8539 45.0678 73.8692 45.3354 73.8843C45.6028 73.8934 45.8703 73.9025 46.1378 73.9086C46.4113 73.9086 46.6545 73.9086 46.8672 73.9086C47.6028 73.9086 48.1864 73.7718 48.618 73.4951C49.0466 73.2214 49.2624 72.7592 49.2624 72.1084C49.2624 71.7771 49.1651 71.5003 48.9706 71.2813C48.7761 71.0624 48.4357 70.7887 47.9493 70.4542L46.7578 69.6515C46.2867 69.3352 45.919 68.9825 45.6514 68.5933C45.39 68.198 45.2624 67.7509 45.2624 67.2553C45.2624 66.6167 45.4235 66.1089 45.7487 65.7348C46.08 65.3548 46.5146 65.0841 47.0496 64.9199C47.5846 64.7496 48.1621 64.6644 48.7883 64.6644Z" fill="white"/>
<path d="M57.9504 68.3622C57.4064 68.3622 56.9443 68.5659 56.5645 68.9703C56.1906 69.3778 55.9474 69.9313 55.835 70.6367L55.6525 71.7071C55.5948 72.0173 55.5675 72.291 55.5675 72.5342C55.5675 73.0542 55.683 73.4283 55.9201 73.6533C56.1632 73.8722 56.5066 73.9816 56.9535 73.9816C57.2939 73.9816 57.5887 73.9786 57.841 73.9695C58.0994 73.9543 58.379 73.9269 58.6799 73.8843C58.8745 73.854 58.9534 73.9209 58.9231 74.0911L58.838 74.5899C58.8136 74.754 58.7043 74.8513 58.5098 74.8818C58.2818 74.9243 58.0143 74.9578 57.7073 74.9913C57.4064 75.0216 57.0933 75.0399 56.7711 75.0399C56.2422 75.0399 55.8015 74.9304 55.4459 74.7115C55.0872 74.4865 54.8197 74.1763 54.6434 73.787C54.4641 73.3917 54.376 72.9478 54.376 72.4613C54.376 72.3335 54.379 72.2058 54.3881 72.0842C54.4034 71.9626 54.4246 71.8379 54.4489 71.7071L54.6192 70.6367C54.8045 69.5268 55.2028 68.6967 55.8106 68.1432C56.4186 67.5837 57.1906 67.304 58.1328 67.304C58.4489 67.304 58.7529 67.3222 59.0447 67.3527C59.3365 67.3769 59.5918 67.4134 59.8106 67.4621C59.9383 67.4803 60.0113 67.5107 60.0294 67.5594C60.0538 67.6019 60.0538 67.6659 60.0294 67.754L59.9565 68.2527C59.9475 68.3257 59.9201 68.3835 59.8715 68.423C59.8288 68.4656 59.7498 68.4777 59.6283 68.4595C59.3365 68.4199 59.069 68.3957 58.8258 68.3865C58.5827 68.3713 58.2909 68.3622 57.9504 68.3622Z" fill="white"/>
<path d="M69.4293 69.5055C69.4293 69.5967 69.4202 69.685 69.4049 69.7731C69.3958 69.8643 69.3837 69.9616 69.3685 70.065L68.5661 74.6628C68.5478 74.7357 68.5175 74.8027 68.4688 74.8574C68.4262 74.9152 68.3503 74.9425 68.2378 74.9425H67.5691C67.3989 74.9425 67.3259 74.8513 67.3503 74.6628L68.1649 70.065C68.18 69.9616 68.1922 69.8643 68.2013 69.7731C68.2074 69.685 68.2135 69.5997 68.2135 69.5177C68.2135 69.098 68.0919 68.797 67.8487 68.6176C67.6116 68.4321 67.2226 68.3378 66.6815 68.3378C66.405 68.3378 66.1223 68.3591 65.8305 68.3987C65.5387 68.4321 65.2834 68.4807 65.0646 68.5446L63.9946 74.6628C63.9855 74.7357 63.9612 74.8027 63.9217 74.8574C63.8791 74.9152 63.794 74.9425 63.6663 74.9425H63.0098C62.9035 74.9425 62.8396 74.9152 62.8153 74.8574C62.7909 74.7936 62.7818 74.7296 62.7909 74.6628L64.5052 64.8956C64.5204 64.8226 64.5448 64.7618 64.5782 64.7131C64.6177 64.6584 64.6937 64.628 64.8092 64.628H65.5023C65.5752 64.628 65.6299 64.6493 65.6724 64.6888C65.712 64.7314 65.7241 64.7983 65.7089 64.8956L65.2591 67.4985C65.4931 67.4438 65.7514 67.3982 66.0372 67.3648C66.3198 67.3252 66.5964 67.3039 66.864 67.3039C67.7453 67.3039 68.3958 67.5168 68.8093 67.9364C69.2226 68.3591 69.4293 68.8821 69.4293 69.5055Z" fill="white"/>
<path d="M79.4656 69.8826C79.4656 70.0042 79.4564 70.1319 79.4412 70.2597C79.4321 70.3905 79.4199 70.5211 79.4047 70.6489L79.2224 71.6949C79.0521 72.7349 78.6753 73.5529 78.0917 74.152C77.5081 74.7449 76.6691 75.0399 75.575 75.0399C74.7543 75.0399 74.1312 74.7967 73.7026 74.3101C73.271 73.8236 73.0583 73.2032 73.0583 72.4491C73.0583 72.3213 73.0613 72.1937 73.0704 72.0721C73.0855 71.9504 73.1069 71.8257 73.1312 71.6949L73.3014 70.6489C73.6905 68.4199 74.9002 67.304 76.9367 67.304C77.7786 67.304 78.4108 67.5473 78.8333 68.0338C79.2528 68.5142 79.4656 69.1285 79.4656 69.8826ZM78.2619 69.8705C78.2619 69.3778 78.1433 69.0038 77.9093 68.7514C77.6813 68.493 77.2953 68.3622 76.7543 68.3622C76.1616 68.3622 75.6661 68.569 75.271 68.9825C74.8819 69.39 74.6297 69.9434 74.5172 70.6489L74.3348 71.6949C74.2771 71.996 74.2497 72.2636 74.2497 72.4978C74.2497 72.9843 74.3652 73.3552 74.6023 73.6046C74.8455 73.857 75.2284 73.9816 75.7573 73.9816C76.3561 73.9816 76.8516 73.7688 77.2406 73.3371C77.6357 72.9083 77.8971 72.3609 78.0188 71.6949L78.2011 70.6489C78.2254 70.503 78.2406 70.3692 78.2497 70.2475C78.2558 70.1198 78.2619 69.992 78.2619 69.8705Z" fill="white"/>
<path d="M89.3619 69.8826C89.3619 70.0042 89.3525 70.1319 89.337 70.2597C89.3285 70.3905 89.3165 70.5211 89.301 70.6489L89.1183 71.6949C88.9485 72.7349 88.5711 73.5529 87.9879 74.152C87.4046 74.7449 86.5649 75.0399 85.4711 75.0399C84.6504 75.0399 84.0273 74.7967 83.5988 74.3101C83.1672 73.8236 82.9544 73.2032 82.9544 72.4491C82.9544 72.3213 82.9574 72.1937 82.9666 72.0721C82.9817 71.9504 83.003 71.8257 83.0273 71.6949L83.1975 70.6489C83.5866 68.4199 84.7963 67.304 86.8325 67.304C87.6748 67.304 88.3069 67.5473 88.7298 68.0338C89.1492 68.5142 89.3619 69.1285 89.3619 69.8826ZM88.1577 69.8705C88.1577 69.3778 88.0393 69.0038 87.8052 68.7514C87.5779 68.493 87.191 68.3622 86.6507 68.3622C86.058 68.3622 85.5623 68.569 85.1671 68.9825C84.778 69.39 84.5258 69.9434 84.4133 70.6489L84.231 71.6949C84.1732 71.996 84.1458 72.2636 84.1458 72.4978C84.1458 72.9843 84.2614 73.3552 84.4984 73.6046C84.7416 73.857 85.1246 73.9816 85.6534 73.9816C86.2519 73.9816 86.7476 73.7688 87.137 73.3371C87.5316 72.9083 87.7932 72.3609 87.915 71.6949L88.0977 70.6489C88.1217 70.503 88.1371 70.3692 88.1457 70.2475C88.1517 70.1198 88.1577 69.992 88.1577 69.8705Z" fill="white"/>
<path d="M94.7956 64.628H95.5135C95.6739 64.628 95.7348 64.7192 95.6953 64.8956L93.9936 74.6628C93.9756 74.7357 93.9482 74.8027 93.9087 74.8574C93.8658 74.9152 93.7929 74.9425 93.6891 74.9425H92.9721C92.8992 74.9425 92.8443 74.9152 92.8143 74.8574C92.7808 74.7936 92.7688 74.7296 92.7774 74.6628L94.492 64.8956C94.516 64.8226 94.5469 64.7618 94.5889 64.7131C94.6283 64.6584 94.6987 64.628 94.7956 64.628Z" fill="white"/>
<path d="M109.216 65.7835C108.73 65.7835 108.356 65.8321 108.098 65.9294C107.836 66.0206 107.651 66.1697 107.538 66.3795C107.423 66.5924 107.334 66.866 107.271 67.2066L106.942 69.1163H111.149C111.319 69.1163 111.392 69.2105 111.368 69.396L111.283 69.9069C111.274 69.9799 111.246 70.0468 111.198 70.1015C111.156 70.1593 111.076 70.1867 110.955 70.1867H106.748L106.359 72.4856C106.334 72.6011 106.313 72.7015 106.298 72.7896C106.289 72.8808 106.285 72.966 106.285 73.045C106.285 73.3613 106.389 73.5863 106.602 73.714C106.812 73.8448 107.204 73.9086 107.781 73.9086H110.383C110.511 73.9086 110.565 73.9665 110.541 74.079L110.42 74.7479C110.41 74.7905 110.398 74.83 110.383 74.8696C110.374 74.903 110.335 74.9273 110.262 74.9425C110.155 74.9486 109.994 74.9608 109.776 74.979C109.563 74.9943 109.325 75.0064 109.058 75.0156C108.797 75.0216 108.535 75.0277 108.268 75.0277C108.006 75.0337 107.775 75.0398 107.575 75.0398C106.797 75.0398 106.179 74.8787 105.726 74.5533C105.271 74.231 105.046 73.7353 105.046 73.0694C105.046 72.9721 105.049 72.8808 105.058 72.7896C105.074 72.6923 105.088 72.592 105.106 72.4856L106.019 67.2066C106.14 66.5346 106.34 66.0146 106.626 65.6497C106.918 65.2848 107.289 65.0294 107.744 64.8834C108.207 64.7375 108.757 64.6644 109.398 64.6644C110.176 64.6644 110.766 64.6766 111.174 64.701C111.578 64.7192 111.869 64.7466 112.048 64.7861C112.152 64.7952 112.188 64.8591 112.158 64.9807L112.036 65.6254C112.028 65.7318 111.97 65.7835 111.867 65.7835H109.216Z" fill="white"/>
<path d="M122.55 67.0971C122.55 67.2614 122.537 67.4316 122.513 67.608L122.501 67.7053C122.38 68.5081 122.082 69.1406 121.614 69.6028C121.143 70.0589 120.556 70.3508 119.851 70.4786L121.638 74.6871C121.653 74.7205 121.663 74.7601 121.663 74.8088C121.663 74.9 121.614 74.9425 121.517 74.9425H120.568C120.486 74.9425 120.428 74.9395 120.398 74.9304C120.365 74.9152 120.328 74.8574 120.289 74.7601L118.562 70.6854C118.495 70.6854 118.428 70.6854 118.355 70.6854C118.282 70.6854 118.209 70.6854 118.137 70.6854C117.908 70.6854 117.644 70.6823 117.347 70.6732C117.046 70.658 116.805 70.6458 116.629 70.6367L115.936 74.6628C115.927 74.7296 115.9 74.7936 115.851 74.8574C115.802 74.9152 115.729 74.9425 115.632 74.9425H114.89C114.736 74.9425 114.671 74.8513 114.696 74.6628L116.386 65.078C116.425 64.9016 116.556 64.7983 116.774 64.7739C116.969 64.7436 117.215 64.7223 117.516 64.7131C117.814 64.6979 118.115 64.6857 118.416 64.6766C118.714 64.6705 118.975 64.6644 119.194 64.6644C119.851 64.6644 120.428 64.7496 120.933 64.9199C121.444 65.0841 121.838 65.3456 122.124 65.7105C122.407 66.0693 122.55 66.5316 122.55 67.0971ZM121.322 67.158C121.322 66.6167 121.131 66.2518 120.751 66.0633C120.367 65.8778 119.784 65.7835 119 65.7835C118.854 65.7835 118.684 65.7835 118.489 65.7835C118.294 65.7835 118.103 65.7896 117.918 65.7957C117.739 65.7957 117.593 65.8078 117.48 65.8321L116.823 69.5785C117 69.5876 117.219 69.5967 117.48 69.6028C117.739 69.6119 118.021 69.615 118.331 69.615C118.848 69.615 119.316 69.5542 119.729 69.4325C120.149 69.3109 120.495 69.1132 120.763 68.8366C121.03 68.5628 121.194 68.1858 121.261 67.7053L121.273 67.608C121.304 67.4469 121.322 67.2978 121.322 67.158Z" fill="white"/>
<path d="M133.409 67.0728C133.409 67.237 133.397 67.4225 133.372 67.6323L133.336 67.8148C133.214 68.6358 132.941 69.2683 132.521 69.7123C132.108 70.1593 131.591 70.4664 130.977 70.6367C130.369 70.8009 129.694 70.88 128.959 70.88C128.74 70.88 128.5 70.8739 128.241 70.8556C127.98 70.8404 127.768 70.8283 127.597 70.8192L126.928 74.6628C126.919 74.7296 126.895 74.7936 126.855 74.8574C126.813 74.9152 126.737 74.9425 126.624 74.9425H125.883C125.728 74.9425 125.664 74.8513 125.689 74.6628L127.366 65.1145C127.414 64.9138 127.548 64.7983 127.768 64.7739C128.065 64.7344 128.424 64.707 128.837 64.6888C129.251 64.6736 129.655 64.6644 130.053 64.6644C131.074 64.6644 131.889 64.856 132.497 65.2362C133.104 65.6193 133.409 66.2305 133.409 67.0728ZM132.157 67.158C132.157 66.6167 131.968 66.2426 131.597 66.0389C131.232 65.8291 130.655 65.7227 129.871 65.7227C129.652 65.7227 129.409 65.7287 129.141 65.7348C128.873 65.744 128.655 65.7561 128.485 65.7714L127.78 69.7853C127.932 69.7943 128.156 69.8065 128.448 69.8217C128.74 69.84 128.971 69.8461 129.141 69.8461C130.08 69.8461 130.783 69.6728 131.245 69.3231C131.706 68.9764 131.989 68.4716 132.096 67.8148L132.12 67.6323C132.145 67.456 132.157 67.2978 132.157 67.158Z" fill="white"/>
<path d="M138.481 74.8083C138.481 75.1093 138.399 75.3434 138.238 75.5137C138.074 75.6779 137.854 75.757 137.581 75.757H136.828C136.794 75.757 136.779 75.7418 136.779 75.7083V72.3147C136.779 72.2844 136.794 72.2661 136.828 72.2661H137.545C137.827 72.2661 138.049 72.3482 138.214 72.5094C138.374 72.6645 138.457 72.8864 138.457 73.1783C138.457 73.5524 138.317 73.8078 138.043 73.9447C138.034 73.9447 138.031 73.9508 138.031 73.9568C138.031 73.9568 138.034 73.9568 138.043 73.9568C138.335 74.1271 138.481 74.4129 138.481 74.8083ZM137.143 72.5702C137.135 72.5702 137.131 72.5793 137.131 72.5945V73.7987C137.131 73.8169 137.135 73.823 137.143 73.823H137.545C137.721 73.823 137.86 73.7713 137.958 73.6649C138.055 73.5524 138.104 73.3973 138.104 73.2027C138.104 73.0081 138.055 72.856 137.958 72.7404C137.86 72.6279 137.721 72.5702 137.545 72.5702H137.143ZM137.557 75.4408C137.734 75.4408 137.873 75.386 137.97 75.2704C138.074 75.1488 138.128 74.9846 138.128 74.7718C138.128 74.5528 138.074 74.3886 137.97 74.2731C137.873 74.1514 137.734 74.0906 137.557 74.0906H137.143C137.135 74.0906 137.131 74.0967 137.131 74.1027V75.4286C137.131 75.4377 137.135 75.4408 137.143 75.4408H137.557Z" fill="white"/>
<path d="M138.854 76.7544C138.845 76.7544 138.836 76.7483 138.83 76.7422C138.83 76.7331 138.83 76.7209 138.83 76.7058V76.5111C138.83 76.4686 138.845 76.4503 138.879 76.4503C138.976 76.4503 139.052 76.429 139.109 76.3895C139.173 76.3561 139.222 76.2922 139.255 76.1948C139.295 76.1036 139.331 75.9638 139.365 75.7692C139.371 75.7601 139.371 75.757 139.365 75.757C139.365 75.7509 139.365 75.7449 139.365 75.7449L138.733 73.2878V73.2756C138.733 73.2514 138.747 73.2392 138.781 73.2392H139.048C139.079 73.2392 139.1 73.2514 139.109 73.2756L139.547 75.234C139.547 75.2522 139.547 75.2583 139.547 75.2583C139.553 75.2583 139.56 75.2522 139.56 75.234L139.997 73.2756C140.003 73.2514 140.021 73.2392 140.046 73.2392H140.326C140.34 73.2392 140.352 73.2453 140.362 73.2513C140.377 73.2604 140.38 73.2726 140.374 73.2878L139.681 75.976C139.614 76.2009 139.553 76.3682 139.499 76.4747C139.44 76.578 139.365 76.651 139.267 76.6936C139.176 76.7331 139.048 76.7544 138.879 76.7544H138.854Z" fill="white"/>
<path d="M142.497 75.7935C142.255 75.7935 142.054 75.7144 141.902 75.5502C141.747 75.3891 141.67 75.1792 141.67 74.9177V74.7961C141.67 74.7657 141.686 74.7474 141.719 74.7474H141.962C142.002 74.7474 142.023 74.7657 142.023 74.7961V74.8934C142.023 75.0728 142.066 75.2188 142.157 75.3313C142.245 75.4377 142.358 75.4894 142.497 75.4894C142.643 75.4894 142.759 75.4377 142.85 75.3313C142.938 75.2279 142.984 75.0941 142.984 74.9298C142.984 74.8173 142.96 74.72 142.911 74.6379C142.868 74.5498 142.814 74.4768 142.741 74.419C142.674 74.3552 142.558 74.2609 142.388 74.1393C142.224 74.0176 142.096 73.9142 141.999 73.823C141.902 73.7349 141.82 73.6284 141.755 73.5068C141.698 73.3851 141.67 73.2392 141.67 73.0689C141.67 72.8105 141.743 72.6067 141.889 72.4607C142.042 72.3086 142.236 72.2296 142.473 72.2296C142.722 72.2296 142.926 72.3117 143.081 72.4729C143.233 72.6371 143.312 72.856 143.312 73.1297V73.2513C143.312 73.2848 143.294 73.3 143.263 73.3H143.008C142.974 73.3 142.96 73.2848 142.96 73.2513V73.1297C142.96 72.9533 142.914 72.8105 142.826 72.704C142.734 72.5915 142.619 72.5337 142.473 72.5337C142.342 72.5337 142.233 72.5824 142.145 72.6797C142.062 72.777 142.023 72.9108 142.023 73.081C142.023 73.1875 142.038 73.2817 142.072 73.3608C142.111 73.4338 142.169 73.5068 142.242 73.5797C142.321 73.6467 142.436 73.7349 142.582 73.8474C142.783 73.9933 142.935 74.1149 143.033 74.2122C143.129 74.3034 143.202 74.4007 143.251 74.5041C143.306 74.6106 143.336 74.7413 143.336 74.8934C143.336 75.1701 143.257 75.3891 143.105 75.5502C142.95 75.7144 142.747 75.7935 142.497 75.7935Z" fill="white"/>
<path d="M144.557 75.7935C144.32 75.7935 144.135 75.7266 143.997 75.5867C143.858 75.4499 143.791 75.2674 143.791 75.0393V73.9568C143.791 73.7318 143.858 73.5494 143.997 73.4095C144.143 73.2635 144.329 73.1905 144.557 73.1905C144.718 73.1905 144.855 73.224 144.97 73.2878C145.092 73.3547 145.183 73.4399 145.25 73.5433C145.314 73.6497 145.347 73.7622 145.347 73.8838V73.9325C145.347 73.966 145.329 73.9811 145.299 73.9811L145.043 73.9933C145.01 73.9933 144.995 73.9781 144.995 73.9447V73.9081C144.995 73.8048 144.952 73.7105 144.873 73.6284C144.791 73.5494 144.684 73.5068 144.557 73.5068C144.436 73.5068 144.332 73.5524 144.253 73.6406C144.18 73.7227 144.143 73.8352 144.143 73.9811V75.0029C144.143 75.1488 144.18 75.2674 144.253 75.3556C144.332 75.4468 144.436 75.4894 144.557 75.4894C144.684 75.4894 144.791 75.4499 144.873 75.3677C144.952 75.2887 144.995 75.1914 144.995 75.0758V75.0393C144.995 75.009 145.01 74.9907 145.043 74.9907L145.299 75.0029C145.329 75.0029 145.347 75.0212 145.347 75.0515V75.1002C145.347 75.3039 145.275 75.4711 145.129 75.5989C144.989 75.7297 144.8 75.7935 144.557 75.7935Z" fill="white"/>
<path d="M146.692 73.2027C146.772 73.2027 146.845 73.224 146.912 73.2635C146.936 73.2817 146.942 73.3 146.936 73.3243L146.875 73.5919C146.866 73.6162 146.845 73.6254 146.814 73.6162C146.772 73.601 146.723 73.5919 146.668 73.5919C146.635 73.5919 146.613 73.5919 146.607 73.5919C146.486 73.601 146.383 73.6649 146.304 73.7865C146.231 73.902 146.194 74.042 146.194 74.2122V75.7083C146.194 75.7418 146.176 75.757 146.146 75.757H145.89C145.857 75.757 145.842 75.7418 145.842 75.7083V73.2878C145.842 73.2574 145.857 73.2392 145.89 73.2392H146.146C146.176 73.2392 146.194 73.2574 146.194 73.2878V73.5797C146.194 73.5888 146.194 73.5919 146.194 73.5919C146.2 73.5919 146.21 73.5919 146.219 73.5919C146.316 73.3335 146.474 73.2027 146.692 73.2027Z" fill="white"/>
<path d="M147.515 72.777C147.423 72.777 147.356 72.7526 147.308 72.704C147.259 72.6492 147.235 72.5793 147.235 72.4973C147.235 72.4181 147.259 72.3513 147.308 72.3026C147.356 72.2479 147.423 72.2174 147.515 72.2174C147.588 72.2174 147.649 72.2479 147.697 72.3026C147.752 72.3513 147.783 72.4181 147.783 72.4973C147.783 72.5793 147.752 72.6492 147.697 72.704C147.649 72.7526 147.588 72.777 147.515 72.777ZM147.381 75.7571C147.348 75.7571 147.332 75.7418 147.332 75.7084V73.2878C147.332 73.2574 147.348 73.2392 147.381 73.2392H147.636C147.667 73.2392 147.685 73.2574 147.685 73.2878V75.7084C147.685 75.7418 147.667 75.7571 147.636 75.7571H147.381Z" fill="white"/>
<path d="M148.247 75.757C148.213 75.757 148.198 75.7418 148.198 75.7083V75.465C148.198 75.4408 148.201 75.4225 148.21 75.4043L149.231 73.5797C149.231 73.5736 149.231 73.5676 149.231 73.5676C149.231 73.5615 149.225 73.5555 149.219 73.5555H148.259C148.225 73.5555 148.21 73.5402 148.21 73.5068V73.2878C148.21 73.2574 148.225 73.2392 148.259 73.2392H149.609C149.639 73.2392 149.657 73.2574 149.657 73.2878V73.5189C149.657 73.5433 149.651 73.5676 149.645 73.5919L148.611 75.4043C148.611 75.4134 148.611 75.4225 148.611 75.4286C148.611 75.4286 148.614 75.4286 148.623 75.4286H149.621C149.651 75.4286 149.669 75.4469 149.669 75.4772V75.7083C149.669 75.7418 149.651 75.757 149.621 75.757H148.247Z" fill="white"/>
<path d="M150.871 73.1905C151.096 73.1905 151.279 73.2696 151.418 73.4216C151.564 73.5767 151.637 73.7804 151.637 74.0298V75.7083C151.637 75.7418 151.619 75.757 151.588 75.757H151.333C151.3 75.757 151.285 75.7418 151.285 75.7083V75.5623C151.285 75.5563 151.279 75.5502 151.273 75.5502C151.263 75.5442 151.261 75.5442 151.261 75.5502C151.139 75.7144 150.95 75.7935 150.701 75.7935C150.521 75.7935 150.363 75.7418 150.227 75.6354C150.087 75.532 150.02 75.3495 150.02 75.088C150.02 74.8053 150.099 74.5985 150.263 74.4677C150.434 74.3308 150.646 74.2609 150.908 74.2609H151.261C151.275 74.2609 151.285 74.2579 151.285 74.2487V74.0541C151.285 73.8838 151.242 73.7501 151.163 73.6528C151.09 73.5554 150.987 73.5068 150.859 73.5068C150.761 73.5068 150.676 73.5403 150.604 73.6041C150.531 73.671 150.485 73.7562 150.47 73.8595C150.47 73.8929 150.452 73.9081 150.422 73.9081L150.142 73.896C150.123 73.896 150.111 73.8929 150.105 73.8838C150.096 73.8778 150.096 73.8656 150.105 73.8474C150.121 73.6528 150.196 73.4946 150.336 73.3729C150.482 73.2513 150.658 73.1905 150.871 73.1905ZM150.774 75.4894C150.911 75.4894 151.029 75.4468 151.127 75.3556C151.23 75.2674 151.285 75.1458 151.285 74.9907V74.565C151.285 74.5589 151.275 74.5528 151.261 74.5528H150.908C150.743 74.5528 150.616 74.5985 150.519 74.6866C150.428 74.7687 150.385 74.8904 150.385 75.0515C150.385 75.1975 150.422 75.307 150.495 75.3799C150.568 75.4529 150.658 75.4894 150.774 75.4894Z" fill="white"/>
</svg>
